<svg xmlns="http://www.w3.org/2000/svg" xmlns:xlink="http://www.w3.org/1999/xlink" width="326.954" height="227.653" viewBox="0 0 326.954 227.653"><defs><style>.a,.c,.d{fill:#fff;}.b{fill:url(#a);}.c{font-size:48px;font-family:Rubik-Medium, Rubik;font-weight:500;}.d{font-size:26px;font-family:Rubik-Light, Rubik;font-weight:300;}</style><linearGradient id="a" x1="0.154" y1="0.172" x2="1.039" y2="0.74" gradientUnits="objectBoundingBox"><stop offset="0" stop-color="#fff"/><stop offset="1" stop-color="#fff" stop-opacity="0"/></linearGradient></defs><g transform="translate(1041.001 -161.576)"><g transform="translate(-879.578 219.194)"><path class="a" d="M-845.216,231.459" transform="translate(845.216 -231.459)"/></g><g transform="translate(-1041.001 161.576)"><path class="b" d="M-927.174,389.229A113.956,113.956,0,0,1-1041,275.4,113.956,113.956,0,0,1-927.174,161.576h84.539a29.321,29.321,0,0,1,29.288,29.288V275.4A113.956,113.956,0,0,1-927.174,389.229Zm0-225.438A111.738,111.738,0,0,0-1038.786,275.4,111.738,111.738,0,0,0-927.174,387.014,111.737,111.737,0,0,0-815.563,275.4V190.864a27.1,27.1,0,0,0-27.072-27.072Z" transform="translate(1041.001 -161.576)"/></g><text class="c" transform="translate(-986.047 264.344)"><tspan x="0" y="0">CUSTOMER </tspan></text><text class="d" transform="translate(-983.888 219.321)"><tspan x="0" y="0">Virtual </tspan></text><g transform="translate(-981.431 312.025)"><path class="a" d="M-947.957,364.65a11.386,11.386,0,0,1-.85,4.542,4.965,4.965,0,0,1-2.5,2.5,10.725,10.725,0,0,1-4.421.777H-962V349.638h6.024q4.13,0,6.024,1.895t1.993,5.879c.008.249.015.47.022.7h6.814c-.011-.278-.021-.558-.035-.85a15.236,15.236,0,0,0-1.676-7.239,10.415,10.415,0,0,0-4.81-4.47,18.939,18.939,0,0,0-8.088-1.506h-11.854a1.124,1.124,0,0,0-.825.34,1.181,1.181,0,0,0-.341.875v31.628a1.12,1.12,0,0,0,.341.825,1.118,1.118,0,0,0,.825.341h12.1a19.28,19.28,0,0,0,7.992-1.434,9.694,9.694,0,0,0,4.688-4.372,16.651,16.651,0,0,0,1.652-7.458c.021-.448.037-.875.051-1.293h-6.817C-947.932,363.865-947.944,364.244-947.957,364.65Z" transform="translate(968.751 -344.051)"/><path class="a" d="M-899.713,376.6l-11.708-31.336a2.354,2.354,0,0,0-.584-.85,1.573,1.573,0,0,0-1.117-.364h-5.3a1.662,1.662,0,0,0-1.141.364,1.815,1.815,0,0,0-.559.85L-931.826,376.6a1.189,1.189,0,0,0-.1.437.951.951,0,0,0,.315.729,1.015,1.015,0,0,0,.705.292h4.226a1.363,1.363,0,0,0,1-.316,1.624,1.624,0,0,0,.413-.608l2.283-5.927h14.429l2.283,5.927a1.615,1.615,0,0,0,.413.608,1.361,1.361,0,0,0,1,.316h4.227a.932.932,0,0,0,.679-.292.988.988,0,0,0,.292-.729A2.279,2.279,0,0,0-899.713,376.6Zm-21.57-10.98,5.489-15.012,5.538,15.012Z" transform="translate(962.287 -344.051)"/><path class="a" d="M-882.26,378.059a1.121,1.121,0,0,1-.826-.341,1.123,1.123,0,0,1-.341-.825v-10.98l-11.464-20.308a1.667,1.667,0,0,1-.1-.242.9.9,0,0,1-.049-.292.989.989,0,0,1,.292-.729.932.932,0,0,1,.679-.291h4.324a1.471,1.471,0,0,1,.947.291,1.66,1.66,0,0,1,.51.632l8.259,14.138,8.211-14.138a2.237,2.237,0,0,1,.558-.632,1.475,1.475,0,0,1,.947-.291h4.275a.989.989,0,0,1,.729.291.989.989,0,0,1,.292.729,1.745,1.745,0,0,1-.025.292.433.433,0,0,1-.121.242l-11.465,20.308v10.98a1.123,1.123,0,0,1-.34.825,1.18,1.18,0,0,1-.874.341Z" transform="translate(955.814 -344.051)"/><path class="a" d="M-947.957,364.65a11.386,11.386,0,0,1-.85,4.542,4.965,4.965,0,0,1-2.5,2.5,10.725,10.725,0,0,1-4.421.777H-962V349.638h6.024q4.13,0,6.024,1.895t1.993,5.879c.008.249.015.47.022.7h6.814c-.011-.278-.021-.558-.035-.85a15.236,15.236,0,0,0-1.676-7.239,10.415,10.415,0,0,0-4.81-4.47,18.939,18.939,0,0,0-8.088-1.506h-11.854a1.124,1.124,0,0,0-.825.34,1.181,1.181,0,0,0-.341.875v31.628a1.12,1.12,0,0,0,.341.825,1.118,1.118,0,0,0,.825.341h12.1a19.28,19.28,0,0,0,7.992-1.434,9.694,9.694,0,0,0,4.688-4.372,16.651,16.651,0,0,0,1.652-7.458c.021-.448.037-.875.051-1.293h-6.817C-947.932,363.865-947.944,364.244-947.957,364.65Z" transform="translate(968.751 -344.051)"/><path class="a" d="M-899.713,376.6l-11.708-31.336a2.354,2.354,0,0,0-.584-.85,1.573,1.573,0,0,0-1.117-.364h-5.3a1.662,1.662,0,0,0-1.141.364,1.815,1.815,0,0,0-.559.85L-931.826,376.6a1.189,1.189,0,0,0-.1.437.951.951,0,0,0,.315.729,1.015,1.015,0,0,0,.705.292h4.226a1.363,1.363,0,0,0,1-.316,1.624,1.624,0,0,0,.413-.608l2.283-5.927h14.429l2.283,5.927a1.615,1.615,0,0,0,.413.608,1.361,1.361,0,0,0,1,.316h4.227a.932.932,0,0,0,.679-.292.988.988,0,0,0,.292-.729A2.279,2.279,0,0,0-899.713,376.6Zm-21.57-10.98,5.489-15.012,5.538,15.012Z" transform="translate(962.287 -344.051)"/><path class="a" d="M-882.26,378.059a1.121,1.121,0,0,1-.826-.341,1.123,1.123,0,0,1-.341-.825v-10.98l-11.464-20.308a1.667,1.667,0,0,1-.1-.242.9.9,0,0,1-.049-.292.989.989,0,0,1,.292-.729.932.932,0,0,1,.679-.291h4.324a1.471,1.471,0,0,1,.947.291,1.66,1.66,0,0,1,.51.632l8.259,14.138,8.211-14.138a2.237,2.237,0,0,1,.558-.632,1.475,1.475,0,0,1,.947-.291h4.275a.989.989,0,0,1,.729.291.989.989,0,0,1,.292.729,1.745,1.745,0,0,1-.025.292.433.433,0,0,1-.121.242l-11.465,20.308v10.98a1.123,1.123,0,0,1-.34.825,1.18,1.18,0,0,1-.874.341Z" transform="translate(955.814 -344.051)"/></g><g transform="translate(-888.734 217.98)"><path class="a" d="M-856.321,229.987" transform="translate(856.321 -229.987)"/></g><g transform="translate(-903.143 198.385)"><path class="a" d="M-872.117,222.623v-8.941a4.264,4.264,0,0,1,4.259-4.259h.849v-1.681h-.849a5.948,5.948,0,0,0-5.94,5.94v8.941a5.948,5.948,0,0,0,5.94,5.94h7.322v-1.681h-7.322A4.264,4.264,0,0,1-872.117,222.623Z" transform="translate(873.798 -206.487)"/><path class="a" d="M-835.388,208.62l-7.251,4.506a5.947,5.947,0,0,0-5.912-5.384h-1.75v1.681h1.75a4.264,4.264,0,0,1,4.259,4.259v8.941a4.264,4.264,0,0,1-4.259,4.259h-3.131v1.681h3.131a5.948,5.948,0,0,0,5.94-5.94v-.865l7.222,4.055Zm-1.681,14.321-5.541-3.111v-4.742l5.541-3.445Z" transform="translate(869.916 -206.487)"/><path class="a" d="M-857.685,206.22a2.1,2.1,0,0,0-2.1,2.1,2.1,2.1,0,0,0,2.1,2.1,2.1,2.1,0,0,0,2.1-2.1A2.1,2.1,0,0,0-857.685,206.22Z" transform="translate(871.338 -206.22)"/><path class="a" d="M-872.117,222.623v-8.941a4.264,4.264,0,0,1,4.259-4.259h.849v-1.681h-.849a5.948,5.948,0,0,0-5.94,5.94v8.941a5.948,5.948,0,0,0,5.94,5.94h7.322v-1.681h-7.322A4.264,4.264,0,0,1-872.117,222.623Z" transform="translate(873.798 -206.487)"/><path class="a" d="M-835.388,208.62l-7.251,4.506a5.947,5.947,0,0,0-5.912-5.384h-1.75v1.681h1.75a4.264,4.264,0,0,1,4.259,4.259v8.941a4.264,4.264,0,0,1-4.259,4.259h-3.131v1.681h3.131a5.948,5.948,0,0,0,5.94-5.94v-.865l7.222,4.055Zm-1.681,14.321-5.541-3.111v-4.742l5.541-3.445Z" transform="translate(869.916 -206.487)"/><path class="a" d="M-857.685,206.22a2.1,2.1,0,0,0-2.1,2.1,2.1,2.1,0,0,0,2.1,2.1,2.1,2.1,0,0,0,2.1-2.1A2.1,2.1,0,0,0-857.685,206.22Z" transform="translate(871.338 -206.22)"/></g><g transform="translate(-983.473 271.386)"><g transform="translate(0 0)"><path class="a" d="M-948.636,311.765a34.044,34.044,0,0,0-6.753-2.137,48.052,48.052,0,0,1-4.688-1.459,6.542,6.542,0,0,1-2.576-1.579,3.266,3.266,0,0,1-.8-2.258,3.274,3.274,0,0,1,1.6-3.013,8.086,8.086,0,0,1,4.226-.971,7.315,7.315,0,0,1,4.13,1.069,4.036,4.036,0,0,1,1.9,2.575,1.418,1.418,0,0,0,.632.729,1.71,1.71,0,0,0,.777.194h4.518a.93.93,0,0,0,.753-.315,1.066,1.066,0,0,0,.268-.7,6.975,6.975,0,0,0-.9-3.084A10.582,10.582,0,0,0-948,297.846a12.325,12.325,0,0,0-4.033-2.234,16.889,16.889,0,0,0-5.588-.851,16.6,16.6,0,0,0-6.777,1.264,10.253,10.253,0,0,0-4.372,3.45,8.511,8.511,0,0,0-1.53,5,8.631,8.631,0,0,0,1.238,4.809,9.25,9.25,0,0,0,3.692,3.133,28.28,28.28,0,0,0,6.1,2.114,49.9,49.9,0,0,1,5.076,1.482,8.63,8.63,0,0,1,2.842,1.555,2.925,2.925,0,0,1,.923,2.259,3.628,3.628,0,0,1-1.724,3.158,9.419,9.419,0,0,1-5.223,1.166,9.68,9.68,0,0,1-3.619-.583,6.158,6.158,0,0,1-2.259-1.482,4.918,4.918,0,0,1-1.118-1.821,2.776,2.776,0,0,0-.558-.655,1.44,1.44,0,0,0-.947-.268h-4.324a.989.989,0,0,0-.729.292.991.991,0,0,0-.291.729,8.162,8.162,0,0,0,1.676,4.542,11.04,11.04,0,0,0,4.615,3.5,18.779,18.779,0,0,0,7.554,1.336,19.843,19.843,0,0,0,7.239-1.214,10.891,10.891,0,0,0,4.834-3.474,8.747,8.747,0,0,0,1.725-5.466,8.543,8.543,0,0,0-1.215-4.738A8.845,8.845,0,0,0-948.636,311.765Z" transform="translate(971.227 -294.761)"/><path class="a" d="M-862.783,301.612a11.025,11.025,0,0,0-2.867-3.571,13.727,13.727,0,0,0-4.47-2.405,18.7,18.7,0,0,0-5.927-.875,16.754,16.754,0,0,0-7.6,1.579,11.159,11.159,0,0,0-4.81,4.543,15.632,15.632,0,0,0-1.871,7.044c-.012.491-.018,1-.026,1.506h6.95c.01-.42.007-.848.023-1.264q.146-4.178,2.089-6a7.293,7.293,0,0,1,5.2-1.821,8.841,8.841,0,0,1,4.713,1.166,6.686,6.686,0,0,1,2.672,4.372,1.538,1.538,0,0,0,.486.9,1.366,1.366,0,0,0,.874.267h4.615a1.072,1.072,0,0,0,.754-.291.821.821,0,0,0,.267-.729A10.232,10.232,0,0,0-862.783,301.612Z" transform="translate(957.034 -294.761)"/><path class="a" d="M-862.737,321.71h-4.615a1.468,1.468,0,0,0-.874.243,1.471,1.471,0,0,0-.486.923,6.544,6.544,0,0,1-2.648,4.348,8.824,8.824,0,0,1-4.737,1.191,7.29,7.29,0,0,1-5.2-1.822q-1.944-1.822-2.089-6c-.019-.524-.017-1.035-.028-1.554h-6.951c.007.614.017,1.219.031,1.8a15.76,15.76,0,0,0,1.847,7.069,11.035,11.035,0,0,0,4.785,4.518A16.863,16.863,0,0,0-876.048,334a18.7,18.7,0,0,0,5.927-.875,13.725,13.725,0,0,0,4.47-2.4,11.034,11.034,0,0,0,2.867-3.571,10.232,10.232,0,0,0,1.069-4.421.82.82,0,0,0-.267-.729A1.073,1.073,0,0,0-862.737,321.71Z" transform="translate(957.035 -299.022)"/><path class="a" d="M-822.48,301.612a11.011,11.011,0,0,0-2.866-3.571,13.728,13.728,0,0,0-4.47-2.405,18.7,18.7,0,0,0-5.927-.875,16.754,16.754,0,0,0-7.6,1.579,11.154,11.154,0,0,0-4.81,4.543,15.633,15.633,0,0,0-1.871,7.044c-.012.491-.018,1-.026,1.506h6.951c.01-.42.007-.848.023-1.264q.145-4.178,2.089-6a7.293,7.293,0,0,1,5.2-1.821,8.842,8.842,0,0,1,4.713,1.166,6.686,6.686,0,0,1,2.672,4.372,1.533,1.533,0,0,0,.486.9,1.366,1.366,0,0,0,.874.267h4.616a1.069,1.069,0,0,0,.753-.291.82.82,0,0,0,.268-.729A10.22,10.22,0,0,0-822.48,301.612Z" transform="translate(949.96 -294.761)"/><path class="a" d="M-822.433,321.71h-4.616a1.469,1.469,0,0,0-.874.243,1.467,1.467,0,0,0-.486.923,6.544,6.544,0,0,1-2.648,4.348,8.824,8.824,0,0,1-4.737,1.191,7.29,7.29,0,0,1-5.2-1.822q-1.944-1.822-2.089-6c-.019-.524-.016-1.035-.028-1.554h-6.951c.007.614.017,1.219.031,1.8a15.761,15.761,0,0,0,1.847,7.069,11.035,11.035,0,0,0,4.785,4.518A16.864,16.864,0,0,0-835.744,334a18.7,18.7,0,0,0,5.927-.875,13.727,13.727,0,0,0,4.47-2.4,11.02,11.02,0,0,0,2.866-3.571,10.22,10.22,0,0,0,1.069-4.421.818.818,0,0,0-.268-.729A1.07,1.07,0,0,0-822.433,321.71Z" transform="translate(949.961 -299.022)"/><path class="a" d="M-785.371,323.771h-16.373v-8.89h14.915a1.234,1.234,0,0,0,.874-.316,1.106,1.106,0,0,0,.341-.851V310.7a1.108,1.108,0,0,0-.341-.851,1.237,1.237,0,0,0-.874-.315h-14.915v-8.6h15.984a1.184,1.184,0,0,0,.875-.34,1.128,1.128,0,0,0,.341-.826v-3.206a1.188,1.188,0,0,0-.341-.875,1.188,1.188,0,0,0-.875-.34h-21.376a1.125,1.125,0,0,0-.826.34,1.181,1.181,0,0,0-.34.875v31.628a1.118,1.118,0,0,0,.34.825,1.123,1.123,0,0,0,.826.341h21.765a1.186,1.186,0,0,0,.875-.341,1.124,1.124,0,0,0,.34-.825v-3.206a1.186,1.186,0,0,0-.34-.875A1.189,1.189,0,0,0-785.371,323.771Z" transform="translate(942.632 -294.865)"/><path class="a" d="M-751.537,311.765a34.027,34.027,0,0,0-6.753-2.137,48.112,48.112,0,0,1-4.688-1.459,6.548,6.548,0,0,1-2.576-1.579,3.269,3.269,0,0,1-.8-2.258,3.276,3.276,0,0,1,1.6-3.013,8.089,8.089,0,0,1,4.226-.971,7.317,7.317,0,0,1,4.13,1.069,4.034,4.034,0,0,1,1.895,2.575,1.422,1.422,0,0,0,.632.729,1.712,1.712,0,0,0,.777.194h4.519a.93.93,0,0,0,.753-.315,1.069,1.069,0,0,0,.267-.7,6.983,6.983,0,0,0-.9-3.084,10.61,10.61,0,0,0-2.453-2.964,12.335,12.335,0,0,0-4.033-2.234,16.893,16.893,0,0,0-5.588-.851,16.6,16.6,0,0,0-6.777,1.264,10.263,10.263,0,0,0-4.372,3.45,8.511,8.511,0,0,0-1.53,5,8.631,8.631,0,0,0,1.238,4.809,9.253,9.253,0,0,0,3.693,3.133,28.255,28.255,0,0,0,6.1,2.114,49.893,49.893,0,0,1,5.076,1.482,8.635,8.635,0,0,1,2.843,1.555,2.925,2.925,0,0,1,.923,2.259,3.629,3.629,0,0,1-1.725,3.158,9.416,9.416,0,0,1-5.222,1.166,9.682,9.682,0,0,1-3.62-.583,6.158,6.158,0,0,1-2.259-1.482,4.9,4.9,0,0,1-1.117-1.821,2.781,2.781,0,0,0-.559-.655,1.439,1.439,0,0,0-.947-.268h-4.324a.987.987,0,0,0-.729.292.988.988,0,0,0-.292.729,8.169,8.169,0,0,0,1.676,4.542,11.041,11.041,0,0,0,4.615,3.5,18.783,18.783,0,0,0,7.555,1.336,19.839,19.839,0,0,0,7.238-1.214,10.891,10.891,0,0,0,4.834-3.474,8.747,8.747,0,0,0,1.725-5.466,8.55,8.55,0,0,0-1.214-4.738A8.852,8.852,0,0,0-751.537,311.765Z" transform="translate(936.635 -294.761)"/><path class="a" d="M-709.869,314.85a8.845,8.845,0,0,0-3.838-3.084,34.045,34.045,0,0,0-6.753-2.137,48.155,48.155,0,0,1-4.689-1.459,6.538,6.538,0,0,1-2.575-1.579,3.266,3.266,0,0,1-.8-2.258,3.274,3.274,0,0,1,1.6-3.013,8.086,8.086,0,0,1,4.226-.971,7.315,7.315,0,0,1,4.13,1.069,4.036,4.036,0,0,1,1.9,2.575,1.419,1.419,0,0,0,.632.729,1.709,1.709,0,0,0,.777.194h4.518a.93.93,0,0,0,.753-.315,1.07,1.07,0,0,0,.268-.7,6.975,6.975,0,0,0-.9-3.084,10.6,10.6,0,0,0-2.453-2.964,12.325,12.325,0,0,0-4.033-2.234,16.889,16.889,0,0,0-5.588-.851,16.6,16.6,0,0,0-6.776,1.264,10.261,10.261,0,0,0-4.373,3.45,8.516,8.516,0,0,0-1.53,5,8.631,8.631,0,0,0,1.239,4.809,9.251,9.251,0,0,0,3.692,3.133,28.253,28.253,0,0,0,6.1,2.114,49.86,49.86,0,0,1,5.077,1.482,8.629,8.629,0,0,1,2.842,1.555,2.925,2.925,0,0,1,.923,2.259,3.627,3.627,0,0,1-1.725,3.158,9.414,9.414,0,0,1-5.222,1.166,9.679,9.679,0,0,1-3.619-.583,6.169,6.169,0,0,1-2.26-1.482,4.925,4.925,0,0,1-1.117-1.821,2.779,2.779,0,0,0-.558-.655,1.441,1.441,0,0,0-.947-.268h-4.324a.989.989,0,0,0-.729.292.991.991,0,0,0-.291.729,8.168,8.168,0,0,0,1.675,4.542,11.049,11.049,0,0,0,4.616,3.5,18.778,18.778,0,0,0,7.554,1.336,19.843,19.843,0,0,0,7.239-1.214,10.891,10.891,0,0,0,4.834-3.474,8.747,8.747,0,0,0,1.725-5.466A8.551,8.551,0,0,0-709.869,314.85Z" transform="translate(929.995 -294.761)"/><path class="a" d="M-915.372,318.966a5.028,5.028,0,0,0,5.029-5.028,5.01,5.01,0,0,0-1.681-3.744,5,5,0,0,0-3.347-1.283,5,5,0,0,0-3.347,1.283,5.01,5.01,0,0,0-1.681,3.744A5.028,5.028,0,0,0-915.372,318.966Z" transform="translate(962.307 -297.244)"/><path class="a" d="M-902.218,295.718a3.439,3.439,0,0,0-3.985,2.759l-1.619,9.135a22.16,22.16,0,0,1-2.567,7.593,9.486,9.486,0,0,1-4.151,3.927,8.523,8.523,0,0,1-3.221.735h-.2a8.519,8.519,0,0,1-3.22-.735,9.485,9.485,0,0,1-4.151-3.927,22.157,22.157,0,0,1-2.567-7.593l-1.619-9.135a3.44,3.44,0,0,0-3.986-2.759,1.535,1.535,0,0,0-.745.371,1.208,1.208,0,0,0-.3,1.083l3.571,20.147,1.126,6.356a7.912,7.912,0,0,0,7.862,6.476v.009l9.124-.049a7.9,7.9,0,0,0,7-6.435l1.126-6.356,3.571-20.147a1.206,1.206,0,0,0-.3-1.083A1.532,1.532,0,0,0-902.218,295.718Z" transform="translate(964.794 -294.92)"/></g><g transform="translate(0 0)"><path class="a" d="M-948.636,311.765a34.044,34.044,0,0,0-6.753-2.137,48.052,48.052,0,0,1-4.688-1.459,6.542,6.542,0,0,1-2.576-1.579,3.266,3.266,0,0,1-.8-2.258,3.274,3.274,0,0,1,1.6-3.013,8.086,8.086,0,0,1,4.226-.971,7.315,7.315,0,0,1,4.13,1.069,4.036,4.036,0,0,1,1.9,2.575,1.418,1.418,0,0,0,.632.729,1.71,1.71,0,0,0,.777.194h4.518a.93.93,0,0,0,.753-.315,1.066,1.066,0,0,0,.268-.7,6.975,6.975,0,0,0-.9-3.084A10.582,10.582,0,0,0-948,297.846a12.325,12.325,0,0,0-4.033-2.234,16.889,16.889,0,0,0-5.588-.851,16.6,16.6,0,0,0-6.777,1.264,10.253,10.253,0,0,0-4.372,3.45,8.511,8.511,0,0,0-1.53,5,8.631,8.631,0,0,0,1.238,4.809,9.25,9.25,0,0,0,3.692,3.133,28.28,28.28,0,0,0,6.1,2.114,49.9,49.9,0,0,1,5.076,1.482,8.63,8.63,0,0,1,2.842,1.555,2.925,2.925,0,0,1,.923,2.259,3.628,3.628,0,0,1-1.724,3.158,9.419,9.419,0,0,1-5.223,1.166,9.68,9.68,0,0,1-3.619-.583,6.158,6.158,0,0,1-2.259-1.482,4.918,4.918,0,0,1-1.118-1.821,2.776,2.776,0,0,0-.558-.655,1.44,1.44,0,0,0-.947-.268h-4.324a.989.989,0,0,0-.729.292.991.991,0,0,0-.291.729,8.162,8.162,0,0,0,1.676,4.542,11.04,11.04,0,0,0,4.615,3.5,18.779,18.779,0,0,0,7.554,1.336,19.843,19.843,0,0,0,7.239-1.214,10.891,10.891,0,0,0,4.834-3.474,8.747,8.747,0,0,0,1.725-5.466,8.543,8.543,0,0,0-1.215-4.738A8.845,8.845,0,0,0-948.636,311.765Z" transform="translate(971.227 -294.761)"/><path class="a" d="M-862.783,301.612a11.025,11.025,0,0,0-2.867-3.571,13.727,13.727,0,0,0-4.47-2.405,18.7,18.7,0,0,0-5.927-.875,16.754,16.754,0,0,0-7.6,1.579,11.159,11.159,0,0,0-4.81,4.543,15.632,15.632,0,0,0-1.871,7.044c-.012.491-.018,1-.026,1.506h6.95c.01-.42.007-.848.023-1.264q.146-4.178,2.089-6a7.293,7.293,0,0,1,5.2-1.821,8.841,8.841,0,0,1,4.713,1.166,6.686,6.686,0,0,1,2.672,4.372,1.538,1.538,0,0,0,.486.9,1.366,1.366,0,0,0,.874.267h4.615a1.072,1.072,0,0,0,.754-.291.821.821,0,0,0,.267-.729A10.232,10.232,0,0,0-862.783,301.612Z" transform="translate(957.034 -294.761)"/><path class="a" d="M-862.737,321.71h-4.615a1.468,1.468,0,0,0-.874.243,1.471,1.471,0,0,0-.486.923,6.544,6.544,0,0,1-2.648,4.348,8.824,8.824,0,0,1-4.737,1.191,7.29,7.29,0,0,1-5.2-1.822q-1.944-1.822-2.089-6c-.019-.524-.017-1.035-.028-1.554h-6.951c.007.614.017,1.219.031,1.8a15.76,15.76,0,0,0,1.847,7.069,11.035,11.035,0,0,0,4.785,4.518A16.863,16.863,0,0,0-876.048,334a18.7,18.7,0,0,0,5.927-.875,13.725,13.725,0,0,0,4.47-2.4,11.034,11.034,0,0,0,2.867-3.571,10.232,10.232,0,0,0,1.069-4.421.82.82,0,0,0-.267-.729A1.073,1.073,0,0,0-862.737,321.71Z" transform="translate(957.035 -299.022)"/><path class="a" d="M-822.48,301.612a11.011,11.011,0,0,0-2.866-3.571,13.728,13.728,0,0,0-4.47-2.405,18.7,18.7,0,0,0-5.927-.875,16.754,16.754,0,0,0-7.6,1.579,11.154,11.154,0,0,0-4.81,4.543,15.633,15.633,0,0,0-1.871,7.044c-.012.491-.018,1-.026,1.506h6.951c.01-.42.007-.848.023-1.264q.145-4.178,2.089-6a7.293,7.293,0,0,1,5.2-1.821,8.842,8.842,0,0,1,4.713,1.166,6.686,6.686,0,0,1,2.672,4.372,1.533,1.533,0,0,0,.486.9,1.366,1.366,0,0,0,.874.267h4.616a1.069,1.069,0,0,0,.753-.291.82.82,0,0,0,.268-.729A10.22,10.22,0,0,0-822.48,301.612Z" transform="translate(949.96 -294.761)"/><path class="a" d="M-822.433,321.71h-4.616a1.469,1.469,0,0,0-.874.243,1.467,1.467,0,0,0-.486.923,6.544,6.544,0,0,1-2.648,4.348,8.824,8.824,0,0,1-4.737,1.191,7.29,7.29,0,0,1-5.2-1.822q-1.944-1.822-2.089-6c-.019-.524-.016-1.035-.028-1.554h-6.951c.007.614.017,1.219.031,1.8a15.761,15.761,0,0,0,1.847,7.069,11.035,11.035,0,0,0,4.785,4.518A16.864,16.864,0,0,0-835.744,334a18.7,18.7,0,0,0,5.927-.875,13.727,13.727,0,0,0,4.47-2.4,11.02,11.02,0,0,0,2.866-3.571,10.22,10.22,0,0,0,1.069-4.421.818.818,0,0,0-.268-.729A1.07,1.07,0,0,0-822.433,321.71Z" transform="translate(949.961 -299.022)"/><path class="a" d="M-785.371,323.771h-16.373v-8.89h14.915a1.234,1.234,0,0,0,.874-.316,1.106,1.106,0,0,0,.341-.851V310.7a1.108,1.108,0,0,0-.341-.851,1.237,1.237,0,0,0-.874-.315h-14.915v-8.6h15.984a1.184,1.184,0,0,0,.875-.34,1.128,1.128,0,0,0,.341-.826v-3.206a1.188,1.188,0,0,0-.341-.875,1.188,1.188,0,0,0-.875-.34h-21.376a1.125,1.125,0,0,0-.826.34,1.181,1.181,0,0,0-.34.875v31.628a1.118,1.118,0,0,0,.34.825,1.123,1.123,0,0,0,.826.341h21.765a1.186,1.186,0,0,0,.875-.341,1.124,1.124,0,0,0,.34-.825v-3.206a1.186,1.186,0,0,0-.34-.875A1.189,1.189,0,0,0-785.371,323.771Z" transform="translate(942.632 -294.865)"/><path class="a" d="M-751.537,311.765a34.027,34.027,0,0,0-6.753-2.137,48.112,48.112,0,0,1-4.688-1.459,6.548,6.548,0,0,1-2.576-1.579,3.269,3.269,0,0,1-.8-2.258,3.276,3.276,0,0,1,1.6-3.013,8.089,8.089,0,0,1,4.226-.971,7.317,7.317,0,0,1,4.13,1.069,4.034,4.034,0,0,1,1.895,2.575,1.422,1.422,0,0,0,.632.729,1.712,1.712,0,0,0,.777.194h4.519a.93.93,0,0,0,.753-.315,1.069,1.069,0,0,0,.267-.7,6.983,6.983,0,0,0-.9-3.084,10.61,10.61,0,0,0-2.453-2.964,12.335,12.335,0,0,0-4.033-2.234,16.893,16.893,0,0,0-5.588-.851,16.6,16.6,0,0,0-6.777,1.264,10.263,10.263,0,0,0-4.372,3.45,8.511,8.511,0,0,0-1.53,5,8.631,8.631,0,0,0,1.238,4.809,9.253,9.253,0,0,0,3.693,3.133,28.255,28.255,0,0,0,6.1,2.114,49.893,49.893,0,0,1,5.076,1.482,8.635,8.635,0,0,1,2.843,1.555,2.925,2.925,0,0,1,.923,2.259,3.629,3.629,0,0,1-1.725,3.158,9.416,9.416,0,0,1-5.222,1.166,9.682,9.682,0,0,1-3.62-.583,6.158,6.158,0,0,1-2.259-1.482,4.9,4.9,0,0,1-1.117-1.821,2.781,2.781,0,0,0-.559-.655,1.439,1.439,0,0,0-.947-.268h-4.324a.987.987,0,0,0-.729.292.988.988,0,0,0-.292.729,8.169,8.169,0,0,0,1.676,4.542,11.041,11.041,0,0,0,4.615,3.5,18.783,18.783,0,0,0,7.555,1.336,19.839,19.839,0,0,0,7.238-1.214,10.891,10.891,0,0,0,4.834-3.474,8.747,8.747,0,0,0,1.725-5.466,8.55,8.55,0,0,0-1.214-4.738A8.852,8.852,0,0,0-751.537,311.765Z" transform="translate(936.635 -294.761)"/><path class="a" d="M-709.869,314.85a8.845,8.845,0,0,0-3.838-3.084,34.045,34.045,0,0,0-6.753-2.137,48.155,48.155,0,0,1-4.689-1.459,6.538,6.538,0,0,1-2.575-1.579,3.266,3.266,0,0,1-.8-2.258,3.274,3.274,0,0,1,1.6-3.013,8.086,8.086,0,0,1,4.226-.971,7.315,7.315,0,0,1,4.13,1.069,4.036,4.036,0,0,1,1.9,2.575,1.419,1.419,0,0,0,.632.729,1.709,1.709,0,0,0,.777.194h4.518a.93.93,0,0,0,.753-.315,1.07,1.07,0,0,0,.268-.7,6.975,6.975,0,0,0-.9-3.084,10.6,10.6,0,0,0-2.453-2.964,12.325,12.325,0,0,0-4.033-2.234,16.889,16.889,0,0,0-5.588-.851,16.6,16.6,0,0,0-6.776,1.264,10.261,10.261,0,0,0-4.373,3.45,8.516,8.516,0,0,0-1.53,5,8.631,8.631,0,0,0,1.239,4.809,9.251,9.251,0,0,0,3.692,3.133,28.253,28.253,0,0,0,6.1,2.114,49.86,49.86,0,0,1,5.077,1.482,8.629,8.629,0,0,1,2.842,1.555,2.925,2.925,0,0,1,.923,2.259,3.627,3.627,0,0,1-1.725,3.158,9.414,9.414,0,0,1-5.222,1.166,9.679,9.679,0,0,1-3.619-.583,6.169,6.169,0,0,1-2.26-1.482,4.925,4.925,0,0,1-1.117-1.821,2.779,2.779,0,0,0-.558-.655,1.441,1.441,0,0,0-.947-.268h-4.324a.989.989,0,0,0-.729.292.991.991,0,0,0-.291.729,8.168,8.168,0,0,0,1.675,4.542,11.049,11.049,0,0,0,4.616,3.5,18.778,18.778,0,0,0,7.554,1.336,19.843,19.843,0,0,0,7.239-1.214,10.891,10.891,0,0,0,4.834-3.474,8.747,8.747,0,0,0,1.725-5.466A8.551,8.551,0,0,0-709.869,314.85Z" transform="translate(929.995 -294.761)"/><path class="a" d="M-915.372,318.966a5.028,5.028,0,0,0,5.029-5.028,5.01,5.01,0,0,0-1.681-3.744,5,5,0,0,0-3.347-1.283,5,5,0,0,0-3.347,1.283,5.01,5.01,0,0,0-1.681,3.744A5.028,5.028,0,0,0-915.372,318.966Z" transform="translate(962.307 -297.244)"/><path class="a" d="M-902.218,295.718a3.439,3.439,0,0,0-3.985,2.759l-1.619,9.135a22.16,22.16,0,0,1-2.567,7.593,9.486,9.486,0,0,1-4.151,3.927,8.523,8.523,0,0,1-3.221.735h-.2a8.519,8.519,0,0,1-3.22-.735,9.485,9.485,0,0,1-4.151-3.927,22.157,22.157,0,0,1-2.567-7.593l-1.619-9.135a3.44,3.44,0,0,0-3.986-2.759,1.535,1.535,0,0,0-.745.371,1.208,1.208,0,0,0-.3,1.083l3.571,20.147,1.126,6.356a7.912,7.912,0,0,0,7.862,6.476v.009l9.124-.049a7.9,7.9,0,0,0,7-6.435l1.126-6.356,3.571-20.147a1.206,1.206,0,0,0-.3-1.083A1.532,1.532,0,0,0-902.218,295.718Z" transform="translate(964.794 -294.92)"/></g></g></g></svg>